<svg xmlns="http://www.w3.org/2000/svg" width="192" height="192"><defs><linearGradient id="a" x1="100%" x2="0%" y1="100%" y2="0%"><stop offset="0%" stop-color="#F7359B"/><stop offset="100%" stop-color="#AD46FF"/></linearGradient></defs><g fill="none" fill-rule="evenodd"><rect width="192" height="192" fill="url(#a)" rx="40"/><g stroke="#FFF" stroke-linecap="round" stroke-linejoin="round" transform="translate(39 38)"><path stroke-width="5" d="M51.398 5.652a5.699 5.699 0 0 1 11.204 0l5.989 31.673a11.4 11.4 0 0 0 9.084 9.084l31.673 5.99a5.699 5.699 0 0 1 0 11.203L77.675 69.59a11.4 11.4 0 0 0-9.084 9.084l-5.99 31.673a5.699 5.699 0 0 1-11.203 0L45.41 78.675a11.4 11.4 0 0 0-9.084-9.084l-31.673-5.99a5.699 5.699 0 0 1 0-11.203l31.673-5.989a11.4 11.4 0 0 0 9.084-9.084z"/><path stroke-width="4" d="M101.5 0v24M113 12.5H89"/><circle cx="12" cy="102" r="12" stroke-width="4"/></g></g></svg>